<svg xmlns="http://www.w3.org/2000/svg" width="16" height="16" viewBox="0 0 16 16" preserveAspectRatio="xMidYMid"><path d="M13.363-277.735c.027 2.421 2.608 3.227 2.637 3.237-.022.057-.412 1.149-1.36 2.276-.819.975-1.669 1.946-3.008 1.966-1.316.02-1.739-.636-3.243-.636-1.504 0-1.974.616-3.22.656-1.292.04-2.276-1.054-3.102-2.026-1.687-1.986-2.977-5.613-1.245-8.06.86-1.217 2.397-1.987 4.066-2.006 1.269-.02 2.467.695 3.243.695.775 0 2.23-.86 3.761-.734.641.022 2.44.211 3.594 1.588-.093.047-2.146 1.02-2.123 3.044m-2.473-5.946c.686-.676 1.148-1.618 1.022-2.554-.99.032-2.185.536-2.895 1.212-.635.599-1.192 1.557-1.042 2.475 1.102.07 2.229-.456 2.915-1.133"/><path d="M3.958-270.677c-1.36-.674-3.235-3.382-3.68-5.318-.6-2.597.25-4.62 2.382-5.669 1.283-.631 2.454-.683 4.238-.188 1.114.309 1.283.317 2.086.096 2.012-.555 2.567-.62 3.648-.43.987.174 2.471.904 2.592 1.274.03.092-.172.317-.449.5-.277.184-.708.629-.959.988-.377.542-.454.83-.452 1.685.003 1.302.544 2.198 1.736 2.88l.822.468-.525.91c-.78 1.357-2.219 2.755-3.1 3.014-.648.191-.892.173-2.169-.156-1.745-.45-1.961-.451-3.44-.028-1.475.422-1.832.418-2.73-.026zm4.112-12.529c.238-1.225 1.748-2.568 3.23-2.875.477-.1.543-.07.543.24 0 .5-.453 1.518-.884 1.988-.472.513-1.896 1.186-2.516 1.188-.452.002-.473-.03-.374-.54z" fill="#fff"/><path d="M8.228-282.926C7.896-283.791 10.19-286 11.42-286c.495 0 .158 1.247-.557 2.061-.305.348-1.354.917-2.07 1.122-.352.1-.495.073-.565-.109z" fill="#fff"/></svg>