<svg xmlns="http://www.w3.org/2000/svg">
   <symbol id="arrow-down" width="84" height="42" viewBox="0 0 84 42">
    <defs>
      <clipPath id="vjd8a">
        <path fill="currentColor" d="M42-43.426L84.426-1 42 41.426-.426-1z"/>
      </clipPath>
    </defs>
    <g><g>
      <path fill="none" stroke="currentColor" stroke-miterlimit="50" stroke-width="6" d="M42-43.426v0L84.426-1v0L42 41.426v0L-.426-1v0z" clip-path="url(#vjd8a)"/>
    </g></g>
  </symbol>

  <symbol id="insta" width="20" height="20">
    <path fill-rule="evenodd" fill="currentColor" d="M1.124,18.996 C1.605,19.477 2.181,19.718 2.853,19.718 L17.056,19.718 C17.728,19.718 18.304,19.477 18.785,18.996 C19.266,18.515 19.507,17.939 19.507,17.268 L19.507,3.065 C19.507,2.394 19.266,1.818 18.785,1.337 C18.304,0.856 17.728,0.616 17.056,0.616 L2.853,0.616 C2.181,0.616 1.605,0.856 1.124,1.337 C0.643,1.818 0.402,2.394 0.402,3.065 L0.402,17.268 C0.402,17.939 0.643,18.515 1.124,18.996 ZM2.529,8.699 L4.283,8.699 C4.117,9.221 4.034,9.764 4.034,10.328 C4.034,11.920 4.614,13.278 5.775,14.401 C6.936,15.525 8.333,16.086 9.967,16.086 C11.045,16.086 12.040,15.829 12.952,15.315 C13.864,14.801 14.585,14.103 15.116,13.220 C15.647,12.337 15.912,11.373 15.912,10.328 C15.912,9.764 15.829,9.221 15.663,8.699 L17.342,8.699 L17.342,16.758 C17.342,16.974 17.268,17.154 17.119,17.299 C16.969,17.444 16.791,17.516 16.584,17.516 L3.288,17.516 C3.072,17.516 2.892,17.444 2.747,17.299 C2.602,17.154 2.529,16.974 2.529,16.758 L2.529,8.699 ZM9.967,6.411 C11.028,6.411 11.934,6.774 12.685,7.499 C13.435,8.225 13.810,9.101 13.810,10.129 C13.810,11.157 13.435,12.034 12.685,12.760 C11.934,13.485 11.028,13.848 9.967,13.848 C8.914,13.848 8.012,13.485 7.262,12.760 C6.511,12.034 6.136,11.157 6.136,10.129 C6.136,9.101 6.511,8.225 7.262,7.499 C8.012,6.774 8.914,6.411 9.967,6.411 L9.967,6.411 ZM13.462,3.600 C13.462,3.368 13.545,3.167 13.711,2.997 C13.876,2.827 14.079,2.742 14.320,2.742 L16.484,2.742 C16.725,2.742 16.928,2.827 17.094,2.997 C17.259,3.167 17.342,3.368 17.342,3.600 L17.342,5.652 C17.342,5.893 17.259,6.096 17.094,6.262 C16.928,6.427 16.725,6.510 16.484,6.510 L14.320,6.510 C14.079,6.510 13.876,6.427 13.711,6.262 C13.545,6.096 13.462,5.893 13.462,5.652 L13.462,3.600 Z"></path>
  </symbol>


  <symbol id="fb" width="11" height="21">
    <path fill-rule="evenodd" fill="currentColor" d="M3.304,11.279 L3.304,20.718 L7.110,20.718 L7.110,11.279 L10.269,11.279 L10.754,7.597 L7.110,7.597 L7.110,5.247 C7.110,4.650 7.234,4.202 7.483,3.904 C7.732,3.605 8.212,3.456 8.926,3.456 L10.878,3.456 L10.878,0.173 C10.207,0.073 9.261,0.024 8.043,0.024 C6.608,0.024 5.460,0.449 4.597,1.298 C3.735,2.148 3.304,3.344 3.304,4.886 L3.304,7.597 L0.132,7.597 L0.132,11.279 L3.304,11.279 Z"
    ></path>
  </symbol>

  <symbol id="tw" width="21" height="17">
    <path fill-rule="evenodd" fill="currentColor" d="M6.786,16.126 C8.212,16.126 9.551,15.900 10.803,15.448 C12.055,14.996 13.125,14.391 14.012,13.632 C14.899,12.874 15.664,12.001 16.307,11.015 C16.949,10.028 17.428,8.998 17.743,7.924 C18.058,6.851 18.216,5.775 18.216,4.697 C18.216,4.465 18.212,4.291 18.204,4.174 C18.991,3.602 19.663,2.910 20.218,2.098 C19.447,2.429 18.676,2.637 17.905,2.719 C18.776,2.197 19.364,1.459 19.671,0.506 C18.875,0.978 18.025,1.302 17.121,1.476 C16.325,0.630 15.347,0.207 14.186,0.207 C13.075,0.207 12.128,0.599 11.344,1.382 C10.561,2.166 10.169,3.113 10.169,4.224 C10.169,4.523 10.202,4.830 10.268,5.144 C8.627,5.062 7.086,4.649 5.648,3.907 C4.209,3.165 2.988,2.176 1.985,0.941 C1.620,1.563 1.438,2.239 1.438,2.968 C1.438,3.656 1.599,4.295 1.923,4.883 C2.246,5.472 2.681,5.949 3.229,6.314 C2.582,6.289 1.976,6.119 1.413,5.804 L1.413,5.853 C1.413,6.824 1.717,7.675 2.327,8.409 C2.936,9.143 3.705,9.605 4.634,9.796 C4.286,9.887 3.933,9.933 3.577,9.933 C3.345,9.933 3.092,9.912 2.818,9.870 C3.075,10.675 3.548,11.336 4.236,11.854 C4.924,12.372 5.704,12.640 6.574,12.656 C5.115,13.800 3.452,14.372 1.587,14.372 C1.230,14.372 0.907,14.356 0.617,14.323 C2.482,15.525 4.539,16.126 6.786,16.126 L6.786,16.126 Z"></path>
  </symbol>
</svg>